<?xml version="1.0" encoding="utf-8"?>
<!-- Generator: Adobe Illustrator 16.0.4, SVG Export Plug-In . SVG Version: 6.00 Build 0)  -->
<!DOCTYPE svg PUBLIC "-//W3C//DTD SVG 1.1//EN" "http://www.w3.org/Graphics/SVG/1.1/DTD/svg11.dtd">
<svg version="1.1" id="Capa_1" xmlns="http://www.w3.org/2000/svg" xmlns:xlink="http://www.w3.org/1999/xlink" x="0px" y="0px"
	 width="64px" height="64px" viewBox="0 0 64 64" enable-background="new 0 0 64 64" xml:space="preserve">
<path d="M48.387,27.758c-0.01-1.974-0.4-7.824-4.412-12.088c-2.812-2.987-6.799-4.527-11.85-4.578h-0.253
	c-5.047,0.05-9.033,1.59-11.846,4.578c-4.013,4.264-4.403,10.114-4.412,12.088c-1.179,0.404-3.489,1.794-3.489,6.457l0.006,12.34
	c0.156,1.31,1.245,3.785,4.244,3.785h2.66c0.307-0.003,1.892-0.076,2.993-1.209c0.708-0.729,1.056-1.714,1.034-2.93
	c-0.017-0.891-0.106-1.641-0.282-2.354c2.883-5.986,0.399-11.221-0.215-12.354c-0.026-1.232-0.306-2.145-0.852-2.79
	c-0.475-0.559-1.139-0.91-1.976-1.048c0.474-2.361,2.65-8.761,12.262-8.816c9.612,0.055,11.79,6.454,12.265,8.816
	c-0.838,0.138-1.502,0.489-1.977,1.048c-0.541,0.639-0.82,1.543-0.852,2.763c-0.459,0.839-3.182,6.278-0.222,12.4
	c-0.173,0.712-0.262,1.456-0.276,2.334c-0.021,1.216,0.326,2.201,1.033,2.93c1.057,1.086,2.557,1.2,3.018,1.209h2.637
	c3.004,0,4.093-2.516,4.25-3.875v-12.25C51.875,29.552,49.564,28.162,48.387,27.758z M22.144,35.489
	c0.032-0.197,0.064-0.396,0.096-0.593c0.447,1.785,0.646,4.136-0.166,6.692c-0.173-0.637-0.304-1.42-0.324-2.636
	C21.733,37.975,21.931,36.779,22.144,35.489z M41.92,41.611c-0.818-2.57-0.617-4.938-0.163-6.736
	c0.033,0.211,0.068,0.423,0.104,0.639c0.207,1.266,0.406,2.461,0.389,3.439C42.23,40.18,42.096,40.968,41.92,41.611z M47.625,48.84
	h-2.646c-0.049,0-1.215-0.018-1.933-0.755c-0.419-0.431-0.624-1.056-0.608-1.856c0.026-1.541,0.297-2.317,0.584-3.144
	c0.342-0.978,0.693-1.985,0.729-4.108c0.018-1.115-0.189-2.381-0.414-3.734c-0.37-2.245-0.754-4.566,0.096-5.565
	c0.334-0.395,0.889-0.586,1.693-0.586h0.812l-0.065-0.809c-0.009-0.108-0.94-10.799-13.747-10.939h-0.253
	c-12.803,0.141-13.736,10.832-13.744,10.938l-0.066,0.81h0.813c0.806,0,1.359,0.191,1.694,0.586c0.849,0.999,0.465,3.32,0.093,5.58
	c-0.222,1.341-0.43,2.604-0.412,3.722c0.034,2.121,0.387,3.131,0.729,4.111c0.286,0.821,0.557,1.598,0.584,3.141
	c0.015,0.802-0.19,1.427-0.609,1.855c-0.718,0.737-1.879,0.755-1.926,0.755h-2.652c-2.241,0-2.686-2.006-2.75-2.375v-12.25
	c0-4.82,2.692-5.117,2.803-5.127l0.737-0.053L17.125,28.3c-0.004-0.069-0.322-7.015,3.994-11.601
	c2.543-2.701,6.204-4.083,10.882-4.106c4.675,0.024,8.335,1.404,10.877,4.102c4.319,4.583,4.003,11.537,3.999,11.606l-0.041,0.736
	l0.734,0.053c0.115,0.011,2.806,0.31,2.806,5.127l0.006,12.158C50.368,46.475,50.047,48.84,47.625,48.84z"/>
</svg>
