<?xml version="1.0" encoding="utf-8"?>
<!-- Generator: Adobe Illustrator 15.0.0, SVG Export Plug-In  -->
<!DOCTYPE svg PUBLIC "-//W3C//DTD SVG 1.1//EN" "http://www.w3.org/Graphics/SVG/1.1/DTD/svg11.dtd" [
	<!ENTITY ns_flows "http://ns.adobe.com/Flows/1.0/">
]>
<svg version="1.1"
	 xmlns="http://www.w3.org/2000/svg" xmlns:xlink="http://www.w3.org/1999/xlink" xmlns:a="http://ns.adobe.com/AdobeSVGViewerExtensions/3.0/"
	 x="0px" y="0px" width="11px" height="11px" viewBox="-0.996 -1.177 11 11"
	 overflow="visible" enable-background="new -0.996 -1.177 11 11" xml:space="preserve">
<defs>
</defs>
<polygon fill="#4D4D4D" points="5.415,7.341 6.238,7.019 7.041,4.188 4.995,6.17 "/>
<polygon fill="#B3B3B3" points="4.995,6.171 7.041,4.188 7.041,4.188 4.016,3.443 "/>
<polygon fill="#CCCCCC" points="4.016,3.442 2.693,8.402 2.693,8.402 4.995,6.17 "/>
<path fill="#666666" d="M4.367,0l2.818,1.03L8.33,6.205c0.259-0.558,0.403-1.181,0.403-1.838C8.733,1.955,6.778,0,4.367,0z"/>
<path fill="#666666" d="M1.741,1.821L1.741,1.821L2.997,1.37L0.854,1.772C0.742,1.924,0.639,2.083,0.547,2.25L1.741,1.821
	L1.741,1.821z"/>
<path fill="#666666" d="M0.854,1.772L4.367,0C2.927,0,1.65,0.697,0.854,1.772z"/>
<polygon fill="#B3B3B3" points="0.854,1.772 2.997,1.37 1.741,1.821 0,4.367 4.367,0 "/>
<path fill="#CCCCCC" d="M0.547,2.25C0.199,2.877,0,3.599,0,4.367l1.741-2.545L0.547,2.25z"/>
<polygon fill="#B3B3B3" points="4.995,6.17 2.693,8.402 5.415,7.341 "/>
<polygon fill="#B3B3B3" points="5.966,2.504 7.185,1.03 4.367,0 5.242,1.372 7.041,4.191 7.042,4.191 8.326,6.205 8.326,6.205 
	7.184,1.03 "/>
<path fill="#808080" d="M5.825,8.485c1.108-0.394,2.012-1.222,2.505-2.28L6.238,7.019L5.825,8.485z"/>
<polygon fill="#666666" points="6.238,7.019 8.33,6.205 7.041,4.188 "/>
<path fill="#4D4D4D" d="M2.693,8.402c0.516,0.214,1.082,0.331,1.673,0.331c0.511,0,1.002-0.088,1.458-0.248l-0.41-1.144L2.693,8.402
	z"/>
<polygon fill="#B3B3B3" points="5.415,7.341 5.825,8.485 6.238,7.019 "/>
<polygon fill="#CCCCCC" points="3.041,2.901 2.426,5.956 2.693,8.402 3.231,3.007 "/>
<polygon fill="#CCCCCC" points="3.438,0.929 3.227,1.978 3.337,1.944 "/>
<polygon fill="#4D4D4D" points="7.041,4.188 5.242,1.37 4.005,3.436 4.016,3.442 4.005,3.436 3.026,5.073 4.005,3.436 3.231,3.007 
	2.693,8.402 4.016,3.442 "/>
<polygon fill="#4D4D4D" points="2.426,5.956 3.041,2.901 2.028,2.338 "/>
<path fill="#4D4D4D" d="M0,4.367c0,1.03,0.357,1.976,0.953,2.722l0.219-0.967L0,4.367z"/>
<polygon fill="#CCCCCC" points="2.028,2.338 3.227,1.978 3.438,0.929 3.337,1.944 5.242,1.37 4.367,0 0,4.367 1.171,6.122 "/>
<polygon fill="#666666" points="3.337,1.944 3.227,1.978 2.028,2.338 3.041,2.901 3.231,3.007 4.005,3.436 5.242,1.37 "/>
<path fill="#4D4D4D" d="M0.953,7.088c0.457,0.572,1.055,1.028,1.741,1.313l-1.522-2.28L0.953,7.088z"/>
<polygon fill="#B3B3B3" points="2.028,2.338 1.171,6.122 2.693,8.402 2.426,5.956 "/>
</svg>
